HIERARCHY
ROOT Pelvis
{
	OFFSET 0.000000 0.000000 0.000000
	CHANNELS 6 Xposition Yposition Zposition Xrotation Yrotation Zrotation
	JOINT LeftUpLeg_virtual
	{
		OFFSET 0.000000 0.000000 0.000000
		CHANNELS 3 Xrotation Yrotation Zrotation
		JOINT LeftUpLeg
		{
			OFFSET 18.735201 -5.666702 -4.541200
			CHANNELS 3 Xrotation Yrotation Zrotation
			JOINT LeftLeg
			{
				OFFSET -0.021200 -31.938179 0.493100
				CHANNELS 3 Xrotation Yrotation Zrotation
				JOINT LeftFoot
				{
					OFFSET 0.021200 -31.938179 -4.336299
					CHANNELS 3 Xrotation Yrotation Zrotation
					JOINT LeftToeBase
					{
						OFFSET 0.943001 -26.722000 15.023500
						CHANNELS 3 Xrotation Yrotation Zrotation
						End Site
						{
							OFFSET 0 0 0
						}
					}
				}
			}
		}
	}
	JOINT RightUpLeg_virtual
	{
		OFFSET 0.000000 0.000000 0.000000
		CHANNELS 3 Xrotation Yrotation Zrotation
		JOINT RightUpLeg
		{
			OFFSET -18.735201 -5.666702 -4.541200
			CHANNELS 3 Xrotation Yrotation Zrotation
			JOINT RightLeg
			{
				OFFSET 0.018946 -31.938133 0.493100
				CHANNELS 3 Xrotation Yrotation Zrotation
				JOINT RightFoot
				{
					OFFSET -0.018946 -31.938126 -4.336299
					CHANNELS 3 Xrotation Yrotation Zrotation
					JOINT RightToeBase
					{
						OFFSET -0.943001 -26.722004 15.023500
						CHANNELS 3 Xrotation Yrotation Zrotation
						End Site
						{
							OFFSET 0 0 0
						}
					}
				}
			}
		}
	}
	JOINT Hips_virtual
	{
		OFFSET 0.000000 0.000000 0.000000
		CHANNELS 3 Xrotation Yrotation Zrotation
		JOINT Hips
		{
			OFFSET -0.000000 -0.000000 -0.000000
			CHANNELS 3 Xrotation Yrotation Zrotation
			JOINT Spine
			{
				OFFSET 0.000000 10.199997 -0.299500
				CHANNELS 3 Xrotation Yrotation Zrotation
				JOINT Spine1
				{
					OFFSET 0.000000 11.900002 -1.516600
					CHANNELS 3 Xrotation Yrotation Zrotation
					JOINT Spine2
					{
						OFFSET 0.000000 13.600006 -2.842500
						CHANNELS 3 Xrotation Yrotation Zrotation
						JOINT Neck_virtual
						{
							OFFSET 0.000000 0.000000 0.000000
							CHANNELS 3 Xrotation Yrotation Zrotation
							JOINT Neck
							{
								OFFSET 0.000000 9.624100 -2.890100
								CHANNELS 3 Xrotation Yrotation Zrotation
								JOINT Head
								{
									OFFSET 0.000000 14.068802 -1.351900
									CHANNELS 3 Xrotation Yrotation Zrotation
									End Site
									{
										OFFSET 0 0 0
									}
								}
							}
						}
						JOINT LeftShoulder_virtual
						{
							OFFSET 0.000000 0.000000 0.000000
							CHANNELS 3 Xrotation Yrotation Zrotation
							JOINT LeftShoulder
							{
								OFFSET 15.263000 10.923401 -0.547700
								CHANNELS 3 Xrotation Yrotation Zrotation
								JOINT LeftArm
								{
									OFFSET 25.438599 -2.830597 -13.032500
									CHANNELS 3 Xrotation Yrotation Zrotation
									JOINT LeftForeArm
									{
										OFFSET 29.960503 0.000000 0.000000
										CHANNELS 3 Xrotation Yrotation Zrotation
										JOINT LeftHand
										{
											OFFSET 27.849251 0.000000 0.000000
											CHANNELS 3 Xrotation Yrotation Zrotation
											End Site
											{
												OFFSET 0 0 0
											}
										}
									}
								}
							}
						}
						JOINT RightShoulder_virtual
						{
							OFFSET 0.000000 0.000000 0.000000
							CHANNELS 3 Xrotation Yrotation Zrotation
							JOINT RightShoulder
							{
								OFFSET -15.263000 10.923401 -0.547700
								CHANNELS 3 Xrotation Yrotation Zrotation
								JOINT RightArm
								{
									OFFSET -25.438599 -2.830597 -13.032500
									CHANNELS 3 Xrotation Yrotation Zrotation
									JOINT RightForeArm
									{
										OFFSET -29.960503 0.000000 0.000000
										CHANNELS 3 Xrotation Yrotation Zrotation
										JOINT RightHand
										{
											OFFSET -27.849251 0.000000 0.000000
											CHANNELS 3 Xrotation Yrotation Zrotation
											End Site
											{
												OFFSET 0 0 0
											}
										}
									}
								}
							}
						}
					}
				}
			}
		}
	}
}
MOTION
Frames: 13
Frame Time: 0.03333333
1.083717 87.360268 22.402706 0.000000 0.000000 0.000000 -6.443325 -20.918694 -4.259720 -50.981560 4.728912 14.246960 70.025046 9.819056 4.390699 14.473376 7.344255 10.381593 0.000000 0.000000 0.000000 3.966171 4.201434 6.740793 -23.836399 -5.064722 -6.793632 61.776534 0.459371 -5.875017 4.139696 1.486703 3.210901 0.000000 0.000000 0.000000 0.545135 -0.514808 0.499002 -1.952831 -4.101682 4.847962 11.698228 3.160234 -1.902027 6.759771 2.968292 -1.979475 0.000000 0.000000 0.000000 7.593944 1.263262 -1.641819 0.776520 0.712643 0.083499 0.000000 0.000000 0.000000 6.435871 2.633697 -1.603877 1.441196 -4.024134 -5.530739 17.584033 -10.149335 -63.349041 11.308333 -38.788740 -4.481498 0.000000 0.000000 0.000000 7.475304 2.906563 -0.951874 2.473549 3.836059 5.956561 -12.348183 7.312799 54.438100 -23.719044 73.752430 29.049881 0.000000 0.000000 0.000000 
1.141557 86.853577 24.824556 0.000000 0.000000 0.000000 -7.202634 -21.357102 -4.183962 -51.792945 4.385279 14.393387 69.754646 10.083086 4.548286 14.251939 7.557984 10.835367 0.000000 0.000000 0.000000 3.905396 4.308766 6.884149 -23.933287 -5.066222 -6.646793 63.970678 0.634331 -5.761031 5.611835 1.752007 3.656639 0.000000 0.000000 0.000000 0.380050 -0.744123 0.611916 -2.496728 -4.646506 5.405185 11.765381 3.184562 -2.199259 6.871011 2.995393 -2.186374 0.000000 0.000000 0.000000 7.983681 1.269423 -1.897472 0.908940 0.739186 -0.013379 0.000000 0.000000 0.000000 6.589559 2.639231 -1.751814 1.437533 -4.041030 -5.794973 18.323502 -9.796756 -63.299249 11.567946 -38.161254 -4.325954 0.000000 0.000000 0.000000 7.553990 2.987065 -1.207248 2.480939 3.698080 5.222965 -12.829953 6.918444 54.109817 -25.829335 74.403054 30.927547 0.000000 0.000000 0.000000 
1.245500 85.827568 29.420013 0.000000 0.000000 0.000000 -8.591601 -22.217379 -4.050402 -53.259944 3.737088 14.655101 69.205936 10.551631 4.844555 13.800574 7.927853 11.658251 0.000000 0.000000 0.000000 3.752578 4.470015 7.181017 -24.183002 -5.083697 -6.355261 68.113221 1.022612 -5.524434 8.355285 2.307588 4.593773 0.000000 0.000000 0.000000 0.083819 -1.228221 0.832085 -3.489248 -5.674005 6.416580 11.904072 3.231442 -2.753665 7.091669 3.038363 -2.575887 0.000000 0.000000 0.000000 8.704466 1.279370 -2.377591 1.153519 0.788917 -0.196893 0.000000 0.000000 0.000000 6.880950 2.646093 -2.032347 1.435376 -4.052399 -6.301298 19.763842 -9.119221 -63.175022 12.054016 -36.979156 -4.031248 0.000000 0.000000 0.000000 7.704337 3.131561 -1.679003 2.482399 3.435958 3.865152 -13.690130 6.137763 53.541477 -30.185208 75.534707 34.885710 0.000000 0.000000 0.000000 
1.378524 84.265343 35.767776 0.000000 0.000000 0.000000 -10.387746 -23.488360 -3.882194 -55.121467 2.845386 14.987890 68.378164 11.117628 5.248212 13.119132 8.349646 12.703444 0.000000 0.000000 0.000000 3.454439 4.577353 7.648074 -24.678824 -5.146705 -5.923611 73.744405 1.682065 -5.161276 11.999456 3.189511 6.080088 0.000000 0.000000 0.000000 -0.284654 -2.001057 1.149703 -4.770250 -7.070017 7.718784 12.118527 3.294535 -3.496707 7.413959 3.077745 -3.105519 0.000000 0.000000 0.000000 9.652814 1.289092 -3.028651 1.474049 0.856308 -0.449442 0.000000 0.000000 0.000000 7.280230 2.647139 -2.419047 1.442380 -4.021710 -7.016811 21.819818 -8.154882 -62.954086 12.705347 -35.358161 -3.631665 0.000000 0.000000 0.000000 7.914069 3.311852 -2.300011 2.460039 3.073188 2.074379 -14.730584 4.992937 52.886773 -36.980198 76.866409 41.231345 0.000000 0.000000 0.000000 
1.526749 82.157394 43.387589 0.000000 0.000000 0.000000 -12.334659 -25.188237 -3.691719 -57.087879 1.767905 15.357995 67.298107 11.647373 5.723248 12.237375 8.693812 13.795990 0.000000 0.000000 0.000000 2.953685 4.471517 8.300468 -25.519861 -5.299328 -5.361409 80.258315 2.656293 -4.685221 16.067257 4.414756 8.137694 0.000000 0.000000 0.000000 -0.656847 -3.080226 1.553320 -6.159865 -8.687475 9.149199 12.406450 3.359513 -4.349020 7.819535 3.090758 -3.724176 0.000000 0.000000 0.000000 10.703874 1.293584 -3.788209 1.826001 0.935444 -0.750500 0.000000 0.000000 0.000000 7.749152 2.633922 -2.881027 1.465581 -3.911090 -7.913520 24.351887 -6.939190 -62.650668 13.442150 -33.418913 -3.180185 0.000000 0.000000 0.000000 8.169165 3.495182 -2.992023 2.403566 2.636257 0.078060 -15.679589 3.530097 52.324918 -46.260431 78.095085 50.137560 0.000000 0.000000 0.000000 
1.685228 79.509949 51.844490 0.000000 0.000000 0.000000 -14.200671 -27.367245 -3.471373 -58.911358 0.539471 15.756782 66.034522 12.005400 6.232113 11.226417 8.833164 14.764205 0.000000 0.000000 0.000000 2.212783 3.956652 9.140286 -26.775923 -5.595726 -4.688331 87.006160 3.939666 -4.125446 20.066362 5.942957 10.718441 0.000000 0.000000 0.000000 -0.972186 -4.447418 2.032081 -7.498418 -10.369629 10.594673 12.754341 3.402953 -5.236652 8.278665 3.056272 -4.381674 0.000000 0.000000 0.000000 11.736890 1.286743 -4.597168 2.165544 1.021594 -1.080698 0.000000 0.000000 0.000000 8.249824 2.597789 -3.389255 1.510646 -3.693199 -8.978854 27.169543 -5.513347 -62.330667 14.179268 -31.265901 -2.744500 0.000000 0.000000 0.000000 8.458227 3.650585 -3.682215 2.319201 2.148642 -1.909012 -16.229819 1.829943 52.013578 -57.601574 78.985844 61.290320 0.000000 0.000000 0.000000 
1.859087 76.347046 60.809002 0.000000 0.000000 0.000000 -15.818450 -30.079750 -3.192661 -60.429054 -0.832071 16.202160 64.698578 12.078501 6.734064 10.192480 8.669942 15.460961 0.000000 0.000000 0.000000 1.235076 2.832586 10.147558 -28.461461 -6.090450 -3.937175 93.413560 5.460952 -3.509580 23.589237 7.654039 13.699703 0.000000 0.000000 0.000000 -1.192700 -6.046202 2.576436 -8.668573 -11.969514 12.010717 13.137115 3.394886 -6.100471 8.754975 2.958111 -5.035335 0.000000 0.000000 0.000000 12.655655 1.260659 -5.407063 2.457684 1.111805 -1.424221 0.000000 0.000000 0.000000 8.754304 2.529986 -3.920374 1.584047 -3.359080 -10.215269 30.053208 -3.949613 -62.093325 14.842004 -28.990635 -2.395858 0.000000 0.000000 0.000000 8.776255 3.752730 -4.314068 2.231425 1.628501 -3.721400 -16.091518 0.015452 52.045925 -69.950911 79.442026 73.709551 0.000000 0.000000 0.000000 
2.060996 72.707748 70.067451 0.000000 0.000000 0.000000 -17.096894 -33.338993 -2.810936 -61.574108 -2.354032 16.730009 63.429945 11.793855 7.182872 9.256445 8.154014 15.774073 0.000000 0.000000 0.000000 0.071938 0.940325 11.282373 -30.529197 -6.825594 -3.148594 99.073574 7.096010 -2.847974 26.390500 9.364299 16.905910 0.000000 0.000000 0.000000 -1.309982 -7.799384 3.176916 -9.599973 -13.361530 13.412464 13.522759 3.303761 -6.897998 9.213876 2.785715 -5.652753 0.000000 0.000000 0.000000 13.399499 1.205002 -6.181966 2.681473 1.204262 -1.769273 0.000000 0.000000 0.000000 9.250645 2.421026 -4.457355 1.695714 -2.922065 -11.629886 32.789457 -2.368521 -62.028465 15.380053 -26.686770 -2.193635 0.000000 0.000000 0.000000 9.126246 3.783212 -4.850978 2.177985 1.090242 -5.259299 -15.051336 -1.749401 52.419988 -82.014958 79.527041 86.125100 0.000000 0.000000 0.000000 
2.306850 68.643661 79.498650 0.000000 0.000000 0.000000 -18.008989 -37.082002 -2.273115 -62.361765 -4.030058 17.381206 62.373697 11.127602 7.528959 8.529379 7.287355 15.630109 0.000000 0.000000 0.000000 -1.190314 -1.794937 12.501996 -32.886415 -7.820591 -2.356338 103.784841 8.700648 -2.134258 28.413010 10.878333 20.139429 0.000000 0.000000 0.000000 -1.341826 -9.637205 3.822197 -10.262950 -14.447954 14.851133 13.880704 3.100645 -7.600458 9.630725 2.532497 -6.211616 0.000000 0.000000 0.000000 13.944638 1.106807 -6.896946 2.831420 1.296701 -2.107188 0.000000 0.000000 0.000000 9.742169 2.259624 -4.987716 1.858257 -2.419230 -13.220280 35.203901 -0.926892 -62.175308 15.773159 -24.458530 -2.172486 0.000000 0.000000 0.000000 9.518090 3.730260 -5.274118 2.201021 0.546991 -6.484573 -13.021360 -3.278563 53.024944 -92.936219 79.416693 97.649138 0.000000 0.000000 0.000000 
2.611049 64.219543 89.038528 0.000000 0.000000 0.000000 -18.566886 -41.166821 -1.526509 -62.861236 -5.845545 18.188662 61.654758 10.102178 7.727394 8.092749 6.114883 14.995252 0.000000 0.000000 0.000000 -2.456641 -5.343028 13.785050 -35.425029 -9.070363 -1.570530 107.532750 10.145261 -1.360525 29.756733 12.048056 23.210144 0.000000 0.000000 0.000000 -1.320029 -11.520452 4.498556 -10.659490 -15.165627 16.388906 14.191070 2.760131 -8.188878 9.995611 2.192949 -6.698021 0.000000 0.000000 0.000000 14.298420 0.950681 -7.535271 2.915362 1.384651 -2.431138 0.000000 0.000000 0.000000 10.240182 2.031732 -5.500630 2.081101 -1.911411 -14.963097 37.177860 0.220846 -62.506367 16.025671 -22.413496 -2.337530 0.000000 0.000000 0.000000 9.964573 3.587545 -5.577339 2.337178 0.010002 -7.404025 -10.063298 -4.405567 53.649790 -102.556144 79.315770 108.042200 0.000000 0.000000 0.000000 
2.981944 59.517166 98.650368 0.000000 0.000000 0.000000 -18.797388 -45.404393 -0.526522 -63.164729 -7.764446 19.167785 61.355521 8.775231 7.748947 7.986948 4.707320 13.876326 0.000000 0.000000 0.000000 -3.646796 -9.578857 15.146766 -38.050144 -10.551792 -0.770919 110.434651 11.338281 -0.533760 30.609602 12.807627 25.960799 0.000000 0.000000 0.000000 -1.275786 -13.448374 5.191532 -10.814933 -15.494578 18.080680 14.450838 2.257722 -8.651831 10.313471 1.760135 -7.104760 0.000000 0.000000 0.000000 14.489958 0.719397 -8.085888 2.950245 1.460325 -2.735124 0.000000 0.000000 0.000000 10.754164 1.720318 -5.984280 2.361974 -1.480093 -16.809394 38.647065 0.967076 -62.941095 16.153722 -20.643514 -2.667522 0.000000 0.000000 0.000000 10.475500 3.352519 -5.761685 2.608621 -0.516313 -8.048969 -6.377194 -5.037976 54.020960 -111.200022 79.386093 117.510918 0.000000 0.000000 0.000000 
3.418287 54.638184 108.308014 0.000000 0.000000 0.000000 -18.725758 -49.606325 0.758364 -63.361698 -9.736814 20.311997 61.500902 7.225755 7.589194 8.207331 3.144066 12.322392 0.000000 0.000000 0.000000 -4.705338 -14.315318 16.634951 -40.695992 -12.232644 0.083691 112.675752 12.235099 0.317534 31.173086 13.172711 28.284800 0.000000 0.000000 0.000000 -1.229545 -15.448476 5.888936 -10.772384 -15.465365 19.965623 14.674264 1.566948 -8.985143 10.600090 1.224812 -7.429927 0.000000 0.000000 0.000000 14.559962 0.395244 -8.541569 2.957140 1.512796 -3.013419 0.000000 0.000000 0.000000 11.284586 1.306535 -6.424390 2.680794 -1.219430 -18.687541 39.591557 1.279351 -63.376000 16.172954 -19.204851 -3.122348 0.000000 0.000000 0.000000 11.051623 3.024733 -5.831192 3.017004 -1.041276 -8.458306 -2.255232 -5.199613 53.868636 -119.370752 79.708144 126.425354 0.000000 0.000000 0.000000 
3.907909 49.702862 117.991112 0.000000 0.000000 0.000000 -18.369601 -53.623043 2.344790 -63.523054 -11.710695 21.594109 62.052993 5.543243 7.270978 8.706167 1.503207 10.424538 0.000000 0.000000 0.000000 -5.599996 -19.342440 18.309125 -43.328097 -14.076613 1.033790 114.455003 12.834598 1.148029 31.609972 13.214618 30.131267 0.000000 0.000000 0.000000 -1.189652 -17.555564 6.583334 -10.585895 -15.157655 22.067487 14.886399 0.659798 -9.192134 10.875855 0.576810 -7.675947 0.000000 0.000000 0.000000 14.551293 -0.037509 -8.897825 2.956737 1.529532 -3.260403 0.000000 0.000000 0.000000 11.822041 0.772580 -6.804348 3.000720 -1.223528 -20.511724 40.025581 1.202873 -63.713432 16.093119 -18.106826 -3.651148 0.000000 0.000000 0.000000 11.680971 2.604659 -5.790899 3.541989 -1.592524 -8.668785 1.981901 -5.033099 53.002172 -127.541434 80.274250 135.142287 0.000000 0.000000 0.000000 
